<svg viewBox="0 0 760 430" xmlns="http://www.w3.org/2000/svg" font-family="system-ui,-apple-system,Segoe UI,Roboto,sans-serif"><rect width="760" height="430" rx="14" fill="#0d1117"/><rect x="1" y="1" width="758" height="428" rx="13" fill="none" stroke="#30363d"/><text x="28" y="42" fill="#e6edf3" font-size="22" font-weight="700">MTP self-speculation — block-size sweep (FP4)</text><text x="28" y="66" fill="#8b949e" font-size="13">native qwen3_5_mtp drafter · lossless (every token verified) · M4 Pro</text><line x1="80" y1="360" x2="680" y2="360" stroke="#30363d"/><text x="72" y="364" fill="#8b949e" font-size="10" text-anchor="end">0</text><line x1="80" y1="290" x2="680" y2="290" stroke="#30363d"/><text x="72" y="294" fill="#8b949e" font-size="10" text-anchor="end">10</text><line x1="80" y1="220" x2="680" y2="220" stroke="#30363d"/><text x="72" y="224" fill="#8b949e" font-size="10" text-anchor="end">20</text><line x1="80" y1="150" x2="680" y2="150" stroke="#30363d"/><text x="72" y="154" fill="#8b949e" font-size="10" text-anchor="end">30</text><path d="M155.0,255.7 L305.0,195.5 L455.0,174.5 L605.0,182.2" fill="none" stroke="#34d399" stroke-width="3"/><circle cx="155.0" cy="255.7" r="6" fill="#fbbf24" stroke="#0d1117" stroke-width="2"/><text x="155.0" y="239.7" fill="#e6edf3" font-size="15" font-weight="700" text-anchor="middle">14.9</text><text x="155.0" y="382" fill="#e6edf3" font-size="12" text-anchor="middle" font-weight="600">baseline</text><text x="155.0" y="399" fill="#8b949e" font-size="10.5" text-anchor="middle"></text><circle cx="305.0" cy="195.5" r="6" fill="#fbbf24" stroke="#0d1117" stroke-width="2"/><text x="305.0" y="179.5" fill="#e6edf3" font-size="15" font-weight="700" text-anchor="middle">23.5</text><text x="305.0" y="382" fill="#e6edf3" font-size="12" text-anchor="middle" font-weight="600">bs=2</text><text x="305.0" y="399" fill="#8b949e" font-size="10.5" text-anchor="middle">×1.58 · 97% acc</text><circle cx="455.0" cy="174.5" r="9" fill="#34d399" stroke="#0d1117" stroke-width="2"/><text x="455.0" y="158.5" fill="#e6edf3" font-size="15" font-weight="700" text-anchor="middle">26.5</text><text x="455.0" y="382" fill="#e6edf3" font-size="12" text-anchor="middle" font-weight="600">bs=3</text><text x="455.0" y="399" fill="#8b949e" font-size="10.5" text-anchor="middle">×1.78 · 95% acc</text><circle cx="605.0" cy="182.2" r="6" fill="#fbbf24" stroke="#0d1117" stroke-width="2"/><text x="605.0" y="166.2" fill="#e6edf3" font-size="15" font-weight="700" text-anchor="middle">25.4</text><text x="605.0" y="382" fill="#e6edf3" font-size="12" text-anchor="middle" font-weight="600">bs=4</text><text x="605.0" y="399" fill="#8b949e" font-size="10.5" text-anchor="middle">×1.70 · 87% acc</text><text x="680" y="138" fill="#8b949e" font-size="10" text-anchor="end">tok/s</text><rect x="389" y="116" width="132" height="24" rx="12" fill="#34d399" opacity="0.16"/><text x="455" y="132" fill="#34d399" font-size="11.5" font-weight="700" text-anchor="middle">1.78× · sweet spot</text></svg>