<svg viewBox="0 0 760 440" xmlns="http://www.w3.org/2000/svg" font-family="system-ui,-apple-system,Segoe UI,Roboto,sans-serif"><rect width="760" height="440" rx="14" fill="#0d1117"/><rect x="1" y="1" width="758" height="438" rx="13" fill="none" stroke="#30363d"/><text x="28" y="42" fill="#e6edf3" font-size="22" font-weight="700">Pick your build — speed vs footprint</text><text x="28" y="66" fill="#8b949e" font-size="13">bubble = effective precision (bits/weight) · top-left wins · M4 Pro 48 GB</text><line x1="80" y1="110" x2="680" y2="110" stroke="#30363d"/><text x="72" y="114" fill="#8b949e" font-size="10" text-anchor="end">30</text><line x1="80" y1="172" x2="680" y2="172" stroke="#30363d"/><text x="72" y="176" fill="#8b949e" font-size="10" text-anchor="end">22</text><line x1="80" y1="235" x2="680" y2="235" stroke="#30363d"/><text x="72" y="239" fill="#8b949e" font-size="10" text-anchor="end">15</text><line x1="80" y1="298" x2="680" y2="298" stroke="#30363d"/><text x="72" y="302" fill="#8b949e" font-size="10" text-anchor="end">8</text><line x1="80" y1="360" x2="680" y2="360" stroke="#30363d"/><text x="72" y="364" fill="#8b949e" font-size="10" text-anchor="end">0</text><text x="80" y="380" fill="#8b949e" font-size="10" text-anchor="middle">14</text><text x="230" y="380" fill="#8b949e" font-size="10" text-anchor="middle">18</text><text x="380" y="380" fill="#8b949e" font-size="10" text-anchor="middle">23</text><text x="530" y="380" fill="#8b949e" font-size="10" text-anchor="middle">28</text><text x="680" y="380" fill="#8b949e" font-size="10" text-anchor="middle">32</text><text x="380" y="400" fill="#8b949e" font-size="11" text-anchor="middle">peak memory (GB) →</text><text x="34" y="235" fill="#8b949e" font-size="11" text-anchor="middle" transform="rotate(-90 34 235)">decode tok/s →</text><circle cx="610.0" cy="291.7" r="24.7" fill="#818cf8" opacity="0.22"/><circle cx="610.0" cy="291.7" r="5" fill="#818cf8"/><text x="610.0" y="257.0" fill="#e6edf3" font-size="13" font-weight="700" text-anchor="middle">MLX-8bit</text><text x="610.0" y="272.0" fill="#8b949e" font-size="10.5" text-anchor="middle">8.63 bpw · max fidelity</text><circle cx="183.3" cy="233.3" r="18.3" fill="#fbbf24" opacity="0.22"/><circle cx="183.3" cy="233.3" r="5" fill="#fbbf24"/><text x="183.3" y="271.6" fill="#e6edf3" font-size="13" font-weight="700" text-anchor="middle">MLX-FP4</text><text x="183.3" y="286.6" fill="#8b949e" font-size="10.5" text-anchor="middle">4.88 bpw · compact</text><circle cx="236.7" cy="139.2" r="18.3" fill="#34d399" opacity="0.22"/><circle cx="236.7" cy="139.2" r="5" fill="#34d399"/><text x="236.7" y="110.9" fill="#e6edf3" font-size="13" font-weight="700" text-anchor="middle">FP4 + MTP bs3</text><text x="236.7" y="125.9" fill="#8b949e" font-size="10.5" text-anchor="middle">4.88 bpw · fastest</text></svg>